<svg xmlns="http://www.w3.org/2000/svg" xmlns:xlink="http://www.w3.org/1999/xlink" width="50" height="50" viewBox="0 0 50 50">
  <defs>
    <style>
      .cls-1, .cls-2, .cls-5, .cls-6 {
        fill: none;
      }

      .cls-2, .cls-5, .cls-6 {
        stroke: #fff;
      }

      .cls-3 {
        clip-path: url(#clip-path);
      }

      .cls-4 {
        clip-path: url(#clip-path-2);
      }

      .cls-5 {
        stroke-linejoin: round;
      }

      .cls-5, .cls-6 {
        stroke-width: 2px;
      }

      .cls-6 {
        stroke-miterlimit: 10;
      }
    </style>
    <clipPath id="clip-path">
      <rect id="사각형_120667" data-name="사각형 120667" class="cls-1" width="50" height="50" transform="translate(106 94)"/>
    </clipPath>
    <clipPath id="clip-path-2">
      <rect id="사각형_115326" data-name="사각형 115326" class="cls-2" width="38" height="50"/>
    </clipPath>
  </defs>
  <g id="마스크_그룹_139567" data-name="마스크 그룹 139567" class="cls-3" transform="translate(-106 -94)">
    <g id="그룹_132785" data-name="그룹 132785" transform="translate(112 94)">
      <g id="그룹_132784" data-name="그룹 132784" class="cls-4">
        <path id="패스_113634" data-name="패스 113634" class="cls-5" d="M16.756,47H3a2,2,0,0,1-2-2V3A2,2,0,0,1,3,1H27a2,2,0,0,1,2,2V30.694"/>
        <line id="선_15627" data-name="선 15627" class="cls-5" x2="28" transform="translate(1 9)"/>
        <line id="선_15628" data-name="선 15628" class="cls-5" x2="7.072" transform="translate(1 38)"/>
        <line id="선_15629" data-name="선 15629" class="cls-5" x2="8" transform="translate(11 5)"/>
        <path id="패스_113635" data-name="패스 113635" class="cls-6" d="M34.728,32.089,23,29.657V18a3,3,0,0,0-6,0v20.76l-4.684-4.683a3,3,0,0,0-4.242,4.242l9.8,9.8a2.968,2.968,0,0,0,.46.377c.071.048.149.08.223.121a3.148,3.148,0,0,0,.293.155c.1.04.2.063.3.093s.17.059.26.077A3.062,3.062,0,0,0,20,49H34a3,3,0,0,0,3-3V35A3,3,0,0,0,34.728,32.089Z"/>
      </g>
    </g>
  </g>
</svg>
